{"accessors":[{"bufferView":0,"byteOffset":0,"componentType":5126,"count":24,"max":[1,1,1],"min":[-1,-1,-1],"normalized":false,"type":"VEC3"},{"bufferView":1,"byteOffset":0,"componentType":5126,"count":24,"max":[0.999969,0,0.999969,1],"min":[-0.999969,-0.007936,-1,1],"normalized":false,"type":"VEC4"},{"bufferView":2,"byteOffset":0,"componentType":5126,"count":24,"max":[1,1,1],"min":[-1,-1,-1],"normalized":false,"type":"VEC3"},{"bufferView":3,"byteOffset":0,"componentType":5126,"count":24,"max":[1,1],"min":[0,0],"normalized":false,"type":"VEC2"},{"bufferView":4,"byteOffset":0,"componentType":5125,"count":36,"max":[23],"min":[0],"normalized":false,"type":"SCALAR"},{"bufferView":5,"byteOffset":0,"componentType":5126,"count":24,"max":[1,1,1],"min":[-1,-1,-1],"normalized":false,"type":"VEC3"},{"bufferView":6,"byteOffset":0,"componentType":5126,"count":24,"max":[0.999969,0,0.999969,1],"min":[-0.999969,-0.007936,-1,1],"normalized":false,"type":"VEC4"},{"bufferView":7,"byteOffset":0,"componentType":5126,"count":24,"max":[1,1,1],"min":[-1,-1,-1],"normalized":false,"type":"VEC3"},{"bufferView":8,"byteOffset":0,"componentType":5126,"count":24,"max":[1,1],"min":[0,0],"normalized":false,"type":"VEC2"},{"bufferView":9,"byteOffset":0,"componentType":5125,"count":36,"max":[23],"min":[0],"normalized":false,"type":"SCALAR"},{"bufferView":10,"byteOffset":0,"componentType":5126,"count":352,"max":[11.051195,25.405903,1],"min":[-14.776861,-1.176944,-5.621137],"normalized":false,"type":"VEC3"},{"bufferView":11,"byteOffset":0,"componentType":5126,"count":352,"max":[0.999969,1,0,1],"min":[-0.999969,0,-0.007936,-1],"normalized":false,"type":"VEC4"},{"bufferView":12,"byteOffset":0,"componentType":5126,"count":352,"max":[1,1,1],"min":[-1,-1,-1],"normalized":false,"type":"VEC3"},{"bufferView":13,"byteOffset":0,"componentType":5126,"count":352,"max":[0.875,1],"min":[0.125,0],"normalized":false,"type":"VEC2"},{"bufferView":14,"byteOffset":0,"componentType":5125,"count":564,"max":[351],"min":[0],"normalized":false,"type":"SCALAR"},{"bufferView":15,"byteOffset":0,"componentType":5126,"count":2061,"max":[197.513107,58.224224,330.016052],"min":[-118.663681,-13.4146,-330.016052],"normalized":false,"type":"VEC3"},{"bufferView":16,"byteOffset":0,"componentType":5126,"count":2061,"max":[0.016126,0.008192,0.999969,1],"min":[-0.999969,-0.999872,-1,-1],"normalized":false,"type":"VEC4"},{"bufferView":17,"byteOffset":0,"componentType":5126,"count":2061,"max":[1,1,1],"min":[-1,-1,-1],"normalized":false,"type":"VEC3"},{"bufferView":18,"byteOffset":0,"componentType":5126,"count":2061,"max":[1,1],"min":[0,0],"normalized":false,"type":"VEC2"},{"bufferView":19,"byteOffset":0,"componentType":5125,"count":2061,"max":[2060],"min":[0],"normalized":false,"type":"SCALAR"},{"bufferView":20,"byteOffset":0,"componentType":5126,"count":72,"max":[76.010162,25.040482,-215.530548],"min":[4.357292,-0.902127,-240.448914],"normalized":false,"type":"VEC3"},{"bufferView":21,"byteOffset":0,"componentType":5126,"count":72,"max":[0.999969,0,0.999969,1],"min":[-0.999969,-0.007936,-1,1],"normalized":false,"type":"VEC4"},{"bufferView":22,"byteOffset":0,"componentType":5126,"count":72,"max":[0.999708,0.866855,1],"min":[-0.999969,-0.999736,-1],"normalized":false,"type":"VEC3"},{"bufferView":23,"byteOffset":0,"componentType":5126,"count":72,"max":[1,1],"min":[0,0],"normalized":false,"type":"VEC2"},{"bufferView":24,"byteOffset":0,"componentType":5125,"count":72,"max":[71],"min":[0],"normalized":false,"type":"SCALAR"},{"bufferView":25,"byteOffset":0,"componentType":5126,"count":4,"max":[6.677879,23.282648,0],"min":[-29.816391,-1.528608,0],"normalized":false,"type":"VEC3"}],"asset":{"generator":"Godot Engine v3.5.1.stable.official@6fed1ffa313c6760fa88b368ae580378daaef0f0","version":"2.0"},"bufferViews":[{"buffer":0,"byteLength":288,"byteOffset":0},{"buffer":0,"byteLength":384,"byteOffset":288},{"buffer":0,"byteLength":288,"byteOffset":672},{"buffer":0,"byteLength":192,"byteOffset":960},{"buffer":0,"byteLength":144,"byteOffset":1152},{"buffer":0,"byteLength":288,"byteOffset":1296},{"buffer":0,"byteLength":384,"byteOffset":1584},{"buffer":0,"byteLength":288,"byteOffset":1968},{"buffer":0,"byteLength":192,"byteOffset":2256},{"buffer":0,"byteLength":144,"byteOffset":2448},{"buffer":0,"byteLength":4224,"byteOffset":2592},{"buffer":0,"byteLength":5632,"byteOffset":6816},{"buffer":0,"byteLength":4224,"byteOffset":12448},{"buffer":0,"byteLength":2816,"byteOffset":16672},{"buffer":0,"byteLength":2256,"byteOffset":19488},{"buffer":0,"byteLength":24732,"byteOffset":21744},{"buffer":0,"byteLength":32976,"byteOffset":46476},{"buffer":0,"byteLength":24732,"byteOffset":79452},{"buffer":0,"byteLength":16488,"byteOffset":104184},{"buffer":0,"byteLength":8244,"byteOffset":120672},{"buffer":0,"byteLength":864,"byteOffset":128916},{"buffer":0,"byteLength":1152,"byteOffset":129780},{"buffer":0,"byteLength":864,"byteOffset":130932},{"buffer":0,"byteLength":576,"byteOffset":131796},{"buffer":0,"byteLength":288,"byteOffset":132372},{"buffer":0,"byteLength":48,"byteOffset":132660}],"buffers":[{"byteLength":132708,"uri":"testingWorld0.bin"}],"extensions":{"KHR_lights_punctual":{"lights":[{"color":[1,1,1],"intensity":1,"range":340282346638528860000000000000000000000,"type":"directional"}]}},"extensionsRequired":["KHR_texture_transform"],"extensionsUsed":["KHR_lights_punctual","KHR_texture_transform"],"images":[{"uri":"textures/_albedo.png"},{"uri":"textures/_albedo002.png"}],"materials":[{"pbrMetallicRoughness":{"baseColorFactor":[1,1,1,1],"baseColorTexture":{"extensions":{"KHR_texture_transform":{"offset":[0,0],"scale":[1,1]}},"index":0},"metallicFactor":0,"roughnessFactor":1}},{"alphaMode":"BLEND","pbrMetallicRoughness":{"baseColorFactor":[1,1,1,1],"baseColorTexture":{"extensions":{"KHR_texture_transform":{"offset":[0,0],"scale":[1,1]}},"index":1},"metallicFactor":0,"roughnessFactor":1}}],"meshes":[{"extras":{"targetNames":[]},"primitives":[{"attributes":{"NORMAL":2,"POSITION":0,"TANGENT":1,"TEXCOORD_0":3},"indices":4,"mode":4}]},{"extras":{"targetNames":[]},"primitives":[{"attributes":{"NORMAL":7,"POSITION":5,"TANGENT":6,"TEXCOORD_0":8},"indices":9,"mode":4}]},{"extras":{"targetNames":[]},"primitives":[{"attributes":{"NORMAL":12,"POSITION":10,"TANGENT":11,"TEXCOORD_0":13},"indices":14,"material":0,"mode":4}]},{"extras":{"targetNames":[]},"primitives":[{"attributes":{"NORMAL":17,"POSITION":15,"TANGENT":16,"TEXCOORD_0":18},"indices":19,"mode":4}]},{"extras":{"targetNames":[]},"primitives":[{"attributes":{"NORMAL":22,"POSITION":20,"TANGENT":21,"TEXCOORD_0":23},"indices":24,"mode":4}]},{"extras":{"targetNames":[]},"primitives":[{"attributes":{"POSITION":25},"material":1,"mode":0}]}],"nodes":[{"children":[1,2,4,8],"extensions":{},"name":"testingWorld"},{"extensions":{"KHR_lights_punctual":{"light":0}},"name":"DirectionalLight","rotation":[-0.195561,0,0,0.980692],"translation":[-99.120499,17.734699,40.510799]},{"children":[3],"extensions":{},"name":"spawnPoint","scale":[0.5,0.5,0.5],"translation":[-89.722603,12.2037,45.883801]},{"extensions":{},"mesh":0,"name":"MeshInstance"},{"children":[5],"extensions":{},"name":"EndPoint","scale":[4.35297,4.3444,1],"translation":[-108.281998,23.677,-131.496994]},{"children":[6],"extensions":{},"mesh":1,"name":"MeshInstance2"},{"children":[7],"extensions":{},"name":"Area"},{"extensions":{},"name":"CollisionShape"},{"children":[9,12,24],"extensions":{},"name":"school2","scale":[0.8,0.5,0.5],"translation":[-125,6.883,23.162001]},{"children":[10],"extensions":{},"mesh":2,"name":"Cube","scale":[6.56478,1,84.759003],"translation":[35.178696,0,162.363007]},{"children":[11],"extensions":{},"name":"StaticBody"},{"extensions":{},"name":"CollisionShape2"},{"children":[13,14,15,16,17,18,19,20,21,22,23],"extensions":{},"mesh":3,"name":"CSGCombiner2"},{"extensions":{},"name":"CSGBox","translation":[-4.241058,22.404812,-62.536331]},{"extensions":{},"name":"CSGBox5","translation":[-4.241058,31.998024,-62.536331]},{"extensions":{},"name":"CSGBox6","translation":[29.569458,10.271869,-62.536331]},{"extensions":{},"name":"CSGBox2","translation":[90.918701,22.404812,-62.536331]},{"extensions":{},"name":"CSGBox3","translation":[90.090454,22.404812,193.349899]},{"extensions":{},"name":"CSGBox4","translation":[-8.510208,22.404812,193.349899]},{"extensions":{},"name":"CSGBox7","translation":[39.424713,-0.473227,0]},{"extensions":{},"name":"CSGBox8","translation":[-3.762329,12.563834,-253.626465]},{"extensions":{},"name":"CSGBox9","translation":[-31.550232,9.22277,-230.897202]},{"extensions":{},"name":"CSGBox10","translation":[-31.550232,9.22277,-235.47142]},{"extensions":{},"name":"CSGBox11","translation":[40.414795,14.775184,-228.140823]},{"children":[25,26],"extensions":{},"mesh":4,"name":"CSGCombiner23"},{"extensions":{},"name":"CSGPolygon","translation":[29.000008,0.626481,-215.530548]},{"children":[27],"extensions":{},"name":"CSGPolygon2","rotation":[0,1,0,-0],"translation":[46.288162,0.626481,-240.448914]},{"children":[28],"extensions":{},"name":"ImmediateGeometry2","translation":[0,0,0.00001]},{"extensions":{},"mesh":5,"name":"11633","translation":[0,0,0.00001]}],"scene":0,"scenes":[{"nodes":[0]}],"textures":[{"source":0},{"source":1}]}