{"accessors":[{"bufferView":0,"byteOffset":0,"componentType":5126,"count":24,"max":[1,1,1],"min":[-1,-1,-1],"normalized":false,"type":"VEC3"},{"bufferView":1,"byteOffset":0,"componentType":5126,"count":24,"max":[0.999969,0,0.999969,1],"min":[-0.999969,-0.007936,-1,1],"normalized":false,"type":"VEC4"},{"bufferView":2,"byteOffset":0,"componentType":5126,"count":24,"max":[1,1,1],"min":[-1,-1,-1],"normalized":false,"type":"VEC3"},{"bufferView":3,"byteOffset":0,"componentType":5126,"count":24,"max":[1,1],"min":[0,0],"normalized":false,"type":"VEC2"},{"bufferView":4,"byteOffset":0,"componentType":5125,"count":36,"max":[23],"min":[0],"normalized":false,"type":"SCALAR"},{"bufferView":5,"byteOffset":0,"componentType":5126,"count":24,"max":[1,1,1],"min":[-1,-1,-1],"normalized":false,"type":"VEC3"},{"bufferView":6,"byteOffset":0,"componentType":5126,"count":24,"max":[0.999969,0,0.999969,1],"min":[-0.999969,-0.007936,-1,1],"normalized":false,"type":"VEC4"},{"bufferView":7,"byteOffset":0,"componentType":5126,"count":24,"max":[1,1,1],"min":[-1,-1,-1],"normalized":false,"type":"VEC3"},{"bufferView":8,"byteOffset":0,"componentType":5126,"count":24,"max":[1,1],"min":[0,0],"normalized":false,"type":"VEC2"},{"bufferView":9,"byteOffset":0,"componentType":5125,"count":36,"max":[23],"min":[0],"normalized":false,"type":"SCALAR"},{"bufferView":10,"byteOffset":0,"componentType":5126,"count":3570,"max":[488.643219,97.34938,539.88501],"min":[-409.793823,-27.088989,-539.885132],"normalized":false,"type":"VEC3"},{"bufferView":11,"byteOffset":0,"componentType":5126,"count":3570,"max":[0.999969,0.125115,0.999969,1],"min":[-0.999969,-0.999872,-1,-1],"normalized":false,"type":"VEC4"},{"bufferView":12,"byteOffset":0,"componentType":5126,"count":3570,"max":[1,1,1],"min":[-1,-1,-1],"normalized":false,"type":"VEC3"},{"bufferView":13,"byteOffset":0,"componentType":5126,"count":3570,"max":[1.00293,1],"min":[0,0],"normalized":false,"type":"VEC2"},{"bufferView":14,"byteOffset":0,"componentType":5125,"count":3570,"max":[3569],"min":[0],"normalized":false,"type":"SCALAR"},{"bufferView":15,"byteOffset":0,"componentType":5126,"count":72,"max":[76.010201,25.04048,-204.050995],"min":[4.3573,-0.902129,-240.449005],"normalized":false,"type":"VEC3"},{"bufferView":16,"byteOffset":0,"componentType":5126,"count":72,"max":[0.999969,0,0.999969,1],"min":[-0.999969,-0.007936,-1,1],"normalized":false,"type":"VEC4"},{"bufferView":17,"byteOffset":0,"componentType":5126,"count":72,"max":[0.999708,0.866855,1],"min":[-0.999969,-0.999736,-1],"normalized":false,"type":"VEC3"},{"bufferView":18,"byteOffset":0,"componentType":5126,"count":72,"max":[1,1],"min":[0,0],"normalized":false,"type":"VEC2"},{"bufferView":19,"byteOffset":0,"componentType":5125,"count":72,"max":[71],"min":[0],"normalized":false,"type":"SCALAR"}],"asset":{"generator":"Godot Engine v3.5.1.stable.official@6fed1ffa313c6760fa88b368ae580378daaef0f0","version":"2.0"},"bufferViews":[{"buffer":0,"byteLength":288,"byteOffset":0},{"buffer":0,"byteLength":384,"byteOffset":288},{"buffer":0,"byteLength":288,"byteOffset":672},{"buffer":0,"byteLength":192,"byteOffset":960},{"buffer":0,"byteLength":144,"byteOffset":1152},{"buffer":0,"byteLength":288,"byteOffset":1296},{"buffer":0,"byteLength":384,"byteOffset":1584},{"buffer":0,"byteLength":288,"byteOffset":1968},{"buffer":0,"byteLength":192,"byteOffset":2256},{"buffer":0,"byteLength":144,"byteOffset":2448},{"buffer":0,"byteLength":42840,"byteOffset":2592},{"buffer":0,"byteLength":57120,"byteOffset":45432},{"buffer":0,"byteLength":42840,"byteOffset":102552},{"buffer":0,"byteLength":28560,"byteOffset":145392},{"buffer":0,"byteLength":14280,"byteOffset":173952},{"buffer":0,"byteLength":864,"byteOffset":188232},{"buffer":0,"byteLength":1152,"byteOffset":189096},{"buffer":0,"byteLength":864,"byteOffset":190248},{"buffer":0,"byteLength":576,"byteOffset":191112},{"buffer":0,"byteLength":288,"byteOffset":191688}],"buffers":[{"byteLength":191976,"uri":"testingWorld0.bin"}],"extensions":{"KHR_lights_punctual":{"lights":[{"color":[1,1,1],"intensity":1,"range":340282346638528860000000000000000000000,"type":"directional"}]}},"extensionsRequired":["KHR_texture_transform"],"extensionsUsed":["KHR_lights_punctual","KHR_texture_transform"],"meshes":[{"extras":{"targetNames":[]},"primitives":[{"attributes":{"NORMAL":2,"POSITION":0,"TANGENT":1,"TEXCOORD_0":3},"indices":4,"mode":4}]},{"extras":{"targetNames":[]},"primitives":[{"attributes":{"NORMAL":7,"POSITION":5,"TANGENT":6,"TEXCOORD_0":8},"indices":9,"mode":4}]},{"extras":{"targetNames":[]},"primitives":[{"attributes":{"NORMAL":12,"POSITION":10,"TANGENT":11,"TEXCOORD_0":13},"indices":14,"mode":4}]},{"extras":{"targetNames":[]},"primitives":[{"attributes":{"NORMAL":17,"POSITION":15,"TANGENT":16,"TEXCOORD_0":18},"indices":19,"mode":4}]}],"nodes":[{"children":[1,2,4,8],"extensions":{},"name":"testingWorld"},{"extensions":{"KHR_lights_punctual":{"light":0}},"name":"DirectionalLight","rotation":[-0.195561,0,0,0.980692],"translation":[-99.120499,17.734699,40.510799]},{"children":[3],"extensions":{},"name":"spawnPoint","scale":[0.5,0.5,0.5],"translation":[-89.722603,12.2037,45.883801]},{"extensions":{},"mesh":0,"name":"MeshInstance"},{"children":[5],"extensions":{},"name":"EndPoint","scale":[4.35297,4.3444,1],"translation":[-108.281998,31.353701,-157.033997]},{"children":[6],"extensions":{},"mesh":1,"name":"MeshInstance2"},{"children":[7],"extensions":{},"name":"Area"},{"extensions":{},"name":"CollisionShape"},{"children":[9,32],"extensions":{},"name":"school","scale":[0.8,0.5,0.5],"translation":[-125,6.883,23.162001]},{"children":[10,11,12,13,14,15,16,17,18,19,20,21,22,23,24,25,26,27,28,29,30,31],"extensions":{},"mesh":2,"name":"CSGCombiner2"},{"extensions":{},"name":"CSGBox","translation":[-19.311899,22.4048,-62.536301]},{"extensions":{},"name":"CSGBox5","translation":[-19.311899,31.997999,-62.536301]},{"extensions":{},"name":"CSGBox6","translation":[14.4986,10.2719,-62.536301]},{"extensions":{},"name":"CSGBox2","translation":[106.038002,22.4048,-62.536301]},{"extensions":{},"name":"CSGBox3","translation":[110.5,22.4048,193.350006]},{"extensions":{},"name":"CSGBox4","translation":[-22.342899,22.4048,193.350006]},{"extensions":{},"name":"floor","translation":[39.424702,-0.473227,0]},{"extensions":{},"name":"CSGBox8","translation":[-88.890701,12.5638,-291.718994]},{"extensions":{},"name":"CSGBox9","translation":[-31.5502,9.22277,-230.897003]},{"extensions":{},"name":"CSGBox10","translation":[-31.5502,9.22277,-235.470993]},{"extensions":{},"name":"CSGBox11","translation":[40.414799,14.7752,-220.143005]},{"extensions":{},"name":"CSGBox12","translation":[41.820801,0.484954,64.834602]},{"extensions":{},"name":"CSGBox13","translation":[-22.052,-0.3339,-188]},{"extensions":{},"name":"CSGBox14","rotation":[0,0,0.132676,0.991159],"scale":[1.021767,0.991368,1],"translation":[71.057098,6.31638,-187.992996]},{"extensions":{},"name":"CSGBox15","scale":[1.02177,0.991368,1],"translation":[104.805,12.7892,-187.871002]},{"extensions":{},"name":"CSGBox17","scale":[1.02177,0.991368,1],"translation":[104.805,29.8836,-345.355988]},{"extensions":{},"name":"CSGBox19","scale":[1.02177,0.991368,1],"translation":[18.334101,38.446201,-344.213989]},{"extensions":{},"name":"CSGBox20","scale":[1.02177,0.991368,1],"translation":[18.334101,38.446201,-409.949005]},{"extensions":{},"name":"CSGBox18","rotation":[0,0,-0.062977,0.998015],"scale":[1.026724,0.989484,1],"translation":[61.183102,35.130199,-344.779999]},{"extensions":{},"name":"CSGBox21","scale":[1.02672,0.989483,1],"translation":[16.1458,35.130199,-304.316986]},{"extensions":{},"name":"CSGBox22","scale":[1.02672,0.989483,1],"translation":[-157.419006,35.130199,-304.316986]},{"extensions":{},"name":"CSGBox16","rotation":[0.061223,0,0,0.998124],"scale":[1.02177,0.991368,1],"translation":[105.058998,20.866301,-266.415009]},{"children":[33,34],"extensions":{},"mesh":3,"name":"stair2"},{"extensions":{},"name":"CSGPolygon","scale":[1,1,1.54215],"translation":[29,0.626481,-204.050995]},{"extensions":{},"name":"CSGPolygon2","rotation":[0,1,0,-0],"scale":[1,1,1.77173],"translation":[46.2882,0.626481,-240.449005]}],"scene":0,"scenes":[{"nodes":[0]}]}